<svg width="22" height="22" viewBox="0 0 22 22" fill="none" xmlns="http://www.w3.org/2000/svg">
<g clip-path="url(#clip0_184_968)">
<path d="M3.13408 6.26817C4.86499 6.26817 6.26817 4.86499 6.26817 3.13408C6.26817 1.40318 4.86499 0 3.13408 0C1.40318 0 0 1.40318 0 3.13408C0 4.86499 1.40318 6.26817 3.13408 6.26817Z" fill="#C4C4C4"/>
<path d="M11.0001 6.26817C12.731 6.26817 14.1341 4.86499 14.1341 3.13408C14.1341 1.40318 12.731 0 11.0001 0C9.26914 0 7.86597 1.40318 7.86597 3.13408C7.86597 4.86499 9.26914 6.26817 11.0001 6.26817Z" fill="#C4C4C4"/>
<path d="M11.0001 14.1341C12.731 14.1341 14.1341 12.731 14.1341 11.0001C14.1341 9.26914 12.731 7.86597 11.0001 7.86597C9.26914 7.86597 7.86597 9.26914 7.86597 11.0001C7.86597 12.731 9.26914 14.1341 11.0001 14.1341Z" fill="#C4C4C4"/>
<path d="M11.0001 22.0001C12.731 22.0001 14.1341 20.5969 14.1341 18.866C14.1341 17.1351 12.731 15.7319 11.0001 15.7319C9.26914 15.7319 7.86597 17.1351 7.86597 18.866C7.86597 20.5969 9.26914 22.0001 11.0001 22.0001Z" fill="#C4C4C4"/>
<path d="M18.8659 6.26817C20.5968 6.26817 22 4.86499 22 3.13408C22 1.40318 20.5968 0 18.8659 0C17.135 0 15.7318 1.40318 15.7318 3.13408C15.7318 4.86499 17.135 6.26817 18.8659 6.26817Z" fill="#C4C4C4"/>
</g>
<defs>
<clipPath id="clip0_184_968">
<rect width="22" height="22" fill="white"/>
</clipPath>
</defs>
</svg>
