<svg width="23" height="22" viewBox="0 0 23 22" fill="none" xmlns="http://www.w3.org/2000/svg">
<path d="M11.5 0C5.15008 0 0 5.04976 0 11.2781C0 16.2611 3.29475 20.4885 7.86504 21.98C8.43908 22.0844 8.625 21.7347 8.625 21.4378V19.3382C5.42608 20.0205 4.76004 18.0073 4.76004 18.0073C4.23679 16.7038 3.48258 16.357 3.48258 16.357C2.43896 15.6568 3.56212 15.6718 3.56212 15.6718C4.71692 15.7508 5.3245 16.8344 5.3245 16.8344C6.34992 18.5581 8.01454 18.06 8.671 17.7714C8.77354 17.0431 9.07158 16.5449 9.40125 16.2639C6.84729 15.9773 4.16204 15.0102 4.16204 10.6897C4.16204 9.45761 4.6115 8.45198 5.34654 7.66252C5.22771 7.37775 4.83383 6.2302 5.45867 4.67759C5.45867 4.67759 6.42467 4.37496 8.62212 5.83359C9.53925 5.58359 10.5225 5.45859 11.5 5.45389C12.4775 5.45859 13.4617 5.58359 14.3807 5.83359C16.5763 4.37496 17.5404 4.67759 17.5404 4.67759C18.1662 6.23114 17.7723 7.37869 17.6535 7.66252C18.3914 8.45198 18.837 9.45855 18.837 10.6897C18.837 15.0215 16.147 15.9754 13.5863 16.2545C13.9984 16.6042 14.375 17.2902 14.375 18.3429V21.4378C14.375 21.7376 14.559 22.09 15.1426 21.9791C19.7091 20.4857 23 16.2592 23 11.2781C23 5.04976 17.8509 0 11.5 0Z" fill="#C4C4C4"/>
</svg>
